<mxfile host="Electron" modified="2024-09-12T09:56:54.651Z" agent="Mozilla/5.0 (Windows NT 10.0; Win64; x64) AppleWebKit/537.36 (KHTML, like Gecko) draw.io/22.1.18 Chrome/120.0.6099.199 Electron/28.1.2 Safari/537.36" etag="h5ZCvLVHGYJz3oVnC9Tx" version="22.1.18" type="device">
  <diagram name="Page-1" id="52a04d89-c75d-2922-d76d-85b35f80e030">
    <mxGraphModel dx="1434" dy="836" grid="1" gridSize="10" guides="1" tooltips="1" connect="1" arrows="1" fold="1" page="1" pageScale="1" pageWidth="1100" pageHeight="850" background="none" math="0" shadow="0">
      <root>
        <mxCell id="0" />
        <mxCell id="1" parent="0" />
        <mxCell id="4YCl94Dlr__SxsL33BlE-15" value="&lt;b&gt;&lt;font style=&quot;font-size: 36px;&quot;&gt;Notes&lt;/font&gt;&lt;/b&gt;" style="text;html=1;strokeColor=none;fillColor=none;align=center;verticalAlign=middle;whiteSpace=wrap;rounded=0;" parent="1" vertex="1">
          <mxGeometry x="528" y="220" width="60" height="20" as="geometry" />
        </mxCell>
        <mxCell id="dGVynQHeT7o0ak69cViN-1" value="1.0" style="swimlane;html=1;fontStyle=0;childLayout=stackLayout;horizontal=1;startSize=26;fillColor=#e0e0e0;horizontalStack=0;resizeParent=1;resizeLast=0;collapsible=1;marginBottom=0;swimlaneFillColor=#ffffff;align=center;rounded=1;shadow=0;comic=0;labelBackgroundColor=none;strokeWidth=1;fontFamily=Verdana;fontSize=12" parent="1" vertex="1">
          <mxGeometry x="488" y="310" width="140" height="52" as="geometry" />
        </mxCell>
        <mxCell id="dGVynQHeT7o0ak69cViN-2" value="Create/Delete Notebook" style="text;html=1;strokeColor=none;fillColor=none;spacingLeft=4;spacingRight=4;whiteSpace=wrap;overflow=hidden;rotatable=0;points=[[0,0.5],[1,0.5]];portConstraint=eastwest;align=center;" parent="dGVynQHeT7o0ak69cViN-1" vertex="1">
          <mxGeometry y="26" width="140" height="26" as="geometry" />
        </mxCell>
        <mxCell id="lItXQDjz_C2p2fmz2QED-11" style="edgeStyle=orthogonalEdgeStyle;rounded=0;orthogonalLoop=1;jettySize=auto;html=1;exitX=1;exitY=0.25;exitDx=0;exitDy=0;entryX=0;entryY=0.25;entryDx=0;entryDy=0;" edge="1" parent="1" source="dGVynQHeT7o0ak69cViN-3" target="dGVynQHeT7o0ak69cViN-1">
          <mxGeometry relative="1" as="geometry" />
        </mxCell>
        <mxCell id="dGVynQHeT7o0ak69cViN-3" value="User" style="whiteSpace=wrap;html=1;rounded=0;shadow=0;comic=0;labelBackgroundColor=none;strokeWidth=1;fontFamily=Verdana;fontSize=12;align=center;" parent="1" vertex="1">
          <mxGeometry x="258" y="310" width="120" height="50" as="geometry" />
        </mxCell>
        <mxCell id="lItXQDjz_C2p2fmz2QED-1" value="notes" style="html=1;rounded=0;shadow=0;comic=0;labelBackgroundColor=none;strokeWidth=2;fontFamily=Verdana;fontSize=12;align=center;shape=mxgraph.ios7ui.horLines;" vertex="1" parent="1">
          <mxGeometry x="708" y="312" width="135" height="50" as="geometry" />
        </mxCell>
        <mxCell id="lItXQDjz_C2p2fmz2QED-2" value="note_pages" style="html=1;rounded=0;shadow=0;comic=0;labelBackgroundColor=none;strokeWidth=2;fontFamily=Verdana;fontSize=12;align=center;shape=mxgraph.ios7ui.horLines;" vertex="1" parent="1">
          <mxGeometry x="708" y="420" width="135" height="50" as="geometry" />
        </mxCell>
        <mxCell id="lItXQDjz_C2p2fmz2QED-3" style="rounded=0;orthogonalLoop=1;jettySize=auto;html=1;exitX=1;exitY=0.25;exitDx=0;exitDy=0;edgeStyle=orthogonalEdgeStyle;" edge="1" parent="1" source="dGVynQHeT7o0ak69cViN-1">
          <mxGeometry relative="1" as="geometry">
            <mxPoint x="708" y="323" as="targetPoint" />
          </mxGeometry>
        </mxCell>
        <mxCell id="lItXQDjz_C2p2fmz2QED-5" style="rounded=0;orthogonalLoop=1;jettySize=auto;html=1;entryX=1.014;entryY=0.077;entryDx=0;entryDy=0;entryPerimeter=0;edgeStyle=orthogonalEdgeStyle;" edge="1" parent="1">
          <mxGeometry relative="1" as="geometry">
            <mxPoint x="708" y="350" as="sourcePoint" />
            <mxPoint x="628" y="350.7819999999999" as="targetPoint" />
          </mxGeometry>
        </mxCell>
        <mxCell id="lItXQDjz_C2p2fmz2QED-6" value="2.0" style="swimlane;html=1;fontStyle=0;childLayout=stackLayout;horizontal=1;startSize=26;fillColor=#e0e0e0;horizontalStack=0;resizeParent=1;resizeLast=0;collapsible=1;marginBottom=0;swimlaneFillColor=#ffffff;align=center;rounded=1;shadow=0;comic=0;labelBackgroundColor=none;strokeWidth=1;fontFamily=Verdana;fontSize=12" vertex="1" parent="1">
          <mxGeometry x="488" y="418" width="140" height="52" as="geometry" />
        </mxCell>
        <mxCell id="lItXQDjz_C2p2fmz2QED-7" value="Write Notes" style="text;html=1;strokeColor=none;fillColor=none;spacingLeft=4;spacingRight=4;whiteSpace=wrap;overflow=hidden;rotatable=0;points=[[0,0.5],[1,0.5]];portConstraint=eastwest;align=center;" vertex="1" parent="lItXQDjz_C2p2fmz2QED-6">
          <mxGeometry y="26" width="140" height="26" as="geometry" />
        </mxCell>
        <mxCell id="lItXQDjz_C2p2fmz2QED-8" style="rounded=0;orthogonalLoop=1;jettySize=auto;html=1;exitX=1;exitY=0.25;exitDx=0;exitDy=0;edgeStyle=orthogonalEdgeStyle;" edge="1" parent="1" source="lItXQDjz_C2p2fmz2QED-6">
          <mxGeometry relative="1" as="geometry">
            <mxPoint x="628" y="432" as="sourcePoint" />
            <mxPoint x="708" y="430" as="targetPoint" />
          </mxGeometry>
        </mxCell>
        <mxCell id="lItXQDjz_C2p2fmz2QED-10" style="edgeStyle=orthogonalEdgeStyle;rounded=0;orthogonalLoop=1;jettySize=auto;html=1;entryX=0.5;entryY=0;entryDx=0;entryDy=0;exitX=0.5;exitY=1;exitDx=0;exitDy=0;exitPerimeter=0;" edge="1" parent="1" source="dGVynQHeT7o0ak69cViN-2" target="lItXQDjz_C2p2fmz2QED-6">
          <mxGeometry relative="1" as="geometry" />
        </mxCell>
        <mxCell id="lItXQDjz_C2p2fmz2QED-13" style="edgeStyle=orthogonalEdgeStyle;rounded=0;orthogonalLoop=1;jettySize=auto;html=1;exitX=0.75;exitY=1;exitDx=0;exitDy=0;entryX=0;entryY=0.25;entryDx=0;entryDy=0;" edge="1" parent="1" source="dGVynQHeT7o0ak69cViN-3" target="lItXQDjz_C2p2fmz2QED-6">
          <mxGeometry relative="1" as="geometry" />
        </mxCell>
        <mxCell id="lItXQDjz_C2p2fmz2QED-16" style="rounded=0;orthogonalLoop=1;jettySize=auto;html=1;exitX=0;exitY=0.5;exitDx=0;exitDy=0;entryX=1;entryY=0.75;entryDx=0;entryDy=0;edgeStyle=orthogonalEdgeStyle;" edge="1" parent="1" source="dGVynQHeT7o0ak69cViN-2" target="dGVynQHeT7o0ak69cViN-3">
          <mxGeometry relative="1" as="geometry">
            <mxPoint x="388" y="350" as="targetPoint" />
          </mxGeometry>
        </mxCell>
        <mxCell id="lItXQDjz_C2p2fmz2QED-21" style="edgeStyle=orthogonalEdgeStyle;rounded=0;orthogonalLoop=1;jettySize=auto;html=1;exitX=0.5;exitY=1;exitDx=0;exitDy=0;exitPerimeter=0;" edge="1" parent="1" source="lItXQDjz_C2p2fmz2QED-7" target="lItXQDjz_C2p2fmz2QED-17">
          <mxGeometry relative="1" as="geometry">
            <mxPoint x="598" y="490" as="targetPoint" />
            <mxPoint x="518" y="490" as="sourcePoint" />
          </mxGeometry>
        </mxCell>
        <mxCell id="lItXQDjz_C2p2fmz2QED-17" value="3.0" style="swimlane;html=1;fontStyle=0;childLayout=stackLayout;horizontal=1;startSize=26;fillColor=#e0e0e0;horizontalStack=0;resizeParent=1;resizeLast=0;collapsible=1;marginBottom=0;swimlaneFillColor=#ffffff;align=center;rounded=1;shadow=0;comic=0;labelBackgroundColor=none;strokeWidth=1;fontFamily=Verdana;fontSize=12" vertex="1" parent="1">
          <mxGeometry x="488" y="510" width="140" height="52" as="geometry" />
        </mxCell>
        <mxCell id="lItXQDjz_C2p2fmz2QED-18" value="Convert to LaTex format" style="text;html=1;strokeColor=none;fillColor=none;spacingLeft=4;spacingRight=4;whiteSpace=wrap;overflow=hidden;rotatable=0;points=[[0,0.5],[1,0.5]];portConstraint=eastwest;align=center;" vertex="1" parent="lItXQDjz_C2p2fmz2QED-17">
          <mxGeometry y="26" width="140" height="26" as="geometry" />
        </mxCell>
        <mxCell id="lItXQDjz_C2p2fmz2QED-19" style="edgeStyle=orthogonalEdgeStyle;rounded=0;orthogonalLoop=1;jettySize=auto;html=1;" edge="1" parent="1" source="lItXQDjz_C2p2fmz2QED-2" target="lItXQDjz_C2p2fmz2QED-18">
          <mxGeometry relative="1" as="geometry" />
        </mxCell>
        <mxCell id="lItXQDjz_C2p2fmz2QED-20" style="edgeStyle=orthogonalEdgeStyle;rounded=0;orthogonalLoop=1;jettySize=auto;html=1;entryX=0.317;entryY=1.04;entryDx=0;entryDy=0;entryPerimeter=0;" edge="1" parent="1" source="lItXQDjz_C2p2fmz2QED-18" target="dGVynQHeT7o0ak69cViN-3">
          <mxGeometry relative="1" as="geometry" />
        </mxCell>
      </root>
    </mxGraphModel>
  </diagram>
</mxfile>
